<mxfile host="65bd71144e" scale="3" border="0">
    <diagram id="R2lEEEUBdFMjLlhIrx00" name="Page-1">
        <mxGraphModel dx="694" dy="563" grid="1" gridSize="10" guides="1" tooltips="1" connect="1" arrows="1" fold="1" page="1" pageScale="1" pageWidth="827" pageHeight="1169" background="#FFFFFF" math="0" shadow="0" extFonts="Permanent Marker^https://fonts.googleapis.com/css?family=Permanent+Marker">
            <root>
                <mxCell id="0"/>
                <mxCell id="1" parent="0"/>
                <mxCell id="RJFD0Sm-HPqhG27CNGZm-46" style="edgeStyle=none;rounded=0;jumpStyle=none;orthogonalLoop=1;jettySize=auto;html=1;exitX=0.5;exitY=0.5;exitDx=0;exitDy=0;exitPerimeter=0;entryX=0;entryY=0.5;entryDx=0;entryDy=0;strokeWidth=1;startArrow=none;startFill=0;endArrow=none;endFill=0;" parent="1" source="RJFD0Sm-HPqhG27CNGZm-44" target="RJFD0Sm-HPqhG27CNGZm-45" edge="1">
                    <mxGeometry relative="1" as="geometry"/>
                </mxCell>
                <mxCell id="RJFD0Sm-HPqhG27CNGZm-57" style="edgeStyle=none;rounded=0;jumpStyle=none;orthogonalLoop=1;jettySize=auto;html=1;exitX=0.5;exitY=0.5;exitDx=0;exitDy=0;exitPerimeter=0;entryX=0;entryY=0.5;entryDx=0;entryDy=0;strokeWidth=1;startArrow=none;startFill=0;endArrow=none;endFill=0;" parent="1" source="RJFD0Sm-HPqhG27CNGZm-44" target="RJFD0Sm-HPqhG27CNGZm-56" edge="1">
                    <mxGeometry relative="1" as="geometry"/>
                </mxCell>
                <mxCell id="RJFD0Sm-HPqhG27CNGZm-66" style="edgeStyle=none;rounded=0;jumpStyle=none;orthogonalLoop=1;jettySize=auto;html=1;exitX=0.5;exitY=0.5;exitDx=0;exitDy=0;exitPerimeter=0;entryX=0;entryY=0;entryDx=0;entryDy=0;strokeWidth=1;startArrow=none;startFill=0;endArrow=none;endFill=0;" parent="1" source="RJFD0Sm-HPqhG27CNGZm-44" target="RJFD0Sm-HPqhG27CNGZm-65" edge="1">
                    <mxGeometry relative="1" as="geometry"/>
                </mxCell>
                <mxCell id="RJFD0Sm-HPqhG27CNGZm-67" style="edgeStyle=none;rounded=0;jumpStyle=none;orthogonalLoop=1;jettySize=auto;html=1;exitX=0.5;exitY=0.5;exitDx=0;exitDy=0;exitPerimeter=0;entryX=0;entryY=0.5;entryDx=0;entryDy=0;strokeWidth=1;startArrow=none;startFill=0;endArrow=none;endFill=0;" parent="1" source="RJFD0Sm-HPqhG27CNGZm-44" target="RJFD0Sm-HPqhG27CNGZm-64" edge="1">
                    <mxGeometry relative="1" as="geometry"/>
                </mxCell>
                <mxCell id="RJFD0Sm-HPqhG27CNGZm-44" value="Amministratore" style="shape=umlActor;verticalLabelPosition=bottom;verticalAlign=top;html=1;outlineConnect=0;" parent="1" vertex="1">
                    <mxGeometry x="170" y="780" width="30" height="60" as="geometry"/>
                </mxCell>
                <mxCell id="RJFD0Sm-HPqhG27CNGZm-74" style="edgeStyle=none;rounded=0;jumpStyle=none;orthogonalLoop=1;jettySize=auto;html=1;exitX=1;exitY=1;exitDx=0;exitDy=0;strokeWidth=1;startArrow=none;startFill=0;endArrow=none;endFill=0;entryX=0.5;entryY=0.5;entryDx=0;entryDy=0;entryPerimeter=0;" parent="1" source="RJFD0Sm-HPqhG27CNGZm-45" target="RJFD0Sm-HPqhG27CNGZm-69" edge="1">
                    <mxGeometry relative="1" as="geometry"/>
                </mxCell>
                <mxCell id="RJFD0Sm-HPqhG27CNGZm-45" value="Registrazione dipendente" style="ellipse;whiteSpace=wrap;html=1;" parent="1" vertex="1">
                    <mxGeometry x="350" y="660" width="90" height="60" as="geometry"/>
                </mxCell>
                <mxCell id="RJFD0Sm-HPqhG27CNGZm-50" style="edgeStyle=none;rounded=0;jumpStyle=none;orthogonalLoop=1;jettySize=auto;html=1;exitX=0.5;exitY=0.5;exitDx=0;exitDy=0;exitPerimeter=0;entryX=1;entryY=0.5;entryDx=0;entryDy=0;strokeWidth=1;startArrow=none;startFill=0;endArrow=none;endFill=0;" parent="1" source="RJFD0Sm-HPqhG27CNGZm-49" target="RJFD0Sm-HPqhG27CNGZm-45" edge="1">
                    <mxGeometry relative="1" as="geometry">
                        <mxPoint x="590.0000000000023" y="610" as="targetPoint"/>
                    </mxGeometry>
                </mxCell>
                <mxCell id="RJFD0Sm-HPqhG27CNGZm-49" value="Gmail" style="shape=umlActor;verticalLabelPosition=bottom;verticalAlign=top;html=1;outlineConnect=0;" parent="1" vertex="1">
                    <mxGeometry x="560" y="660" width="30" height="60" as="geometry"/>
                </mxCell>
                <mxCell id="RJFD0Sm-HPqhG27CNGZm-56" value="Visualizzazione lista dipendenti" style="ellipse;whiteSpace=wrap;html=1;" parent="1" vertex="1">
                    <mxGeometry x="350" y="730" width="90" height="60" as="geometry"/>
                </mxCell>
                <mxCell id="RJFD0Sm-HPqhG27CNGZm-60" style="edgeStyle=none;rounded=0;jumpStyle=none;orthogonalLoop=1;jettySize=auto;html=1;exitX=0;exitY=0.5;exitDx=0;exitDy=0;strokeWidth=1;startArrow=none;startFill=0;endArrow=open;endFill=0;dashed=1;" parent="1" source="RJFD0Sm-HPqhG27CNGZm-59" edge="1">
                    <mxGeometry relative="1" as="geometry">
                        <mxPoint x="540" y="770" as="sourcePoint"/>
                        <mxPoint x="430" y="780" as="targetPoint"/>
                    </mxGeometry>
                </mxCell>
                <mxCell id="RJFD0Sm-HPqhG27CNGZm-61" value="&amp;lt;extend&amp;gt;" style="edgeLabel;html=1;align=center;verticalAlign=middle;resizable=0;points=[];" parent="RJFD0Sm-HPqhG27CNGZm-60" vertex="1" connectable="0">
                    <mxGeometry x="-0.3198" y="-2" relative="1" as="geometry">
                        <mxPoint x="-10" y="2" as="offset"/>
                    </mxGeometry>
                </mxCell>
                <mxCell id="RJFD0Sm-HPqhG27CNGZm-73" style="edgeStyle=none;rounded=0;jumpStyle=none;orthogonalLoop=1;jettySize=auto;html=1;exitX=0.5;exitY=1;exitDx=0;exitDy=0;entryX=0.5;entryY=0;entryDx=0;entryDy=0;entryPerimeter=0;strokeWidth=1;startArrow=none;startFill=0;endArrow=none;endFill=0;" parent="1" source="RJFD0Sm-HPqhG27CNGZm-59" target="RJFD0Sm-HPqhG27CNGZm-69" edge="1">
                    <mxGeometry relative="1" as="geometry"/>
                </mxCell>
                <mxCell id="14" style="edgeStyle=none;html=1;exitX=0.5;exitY=0;exitDx=0;exitDy=0;endArrow=none;endFill=0;" parent="1" source="RJFD0Sm-HPqhG27CNGZm-59" target="RJFD0Sm-HPqhG27CNGZm-49" edge="1">
                    <mxGeometry relative="1" as="geometry"/>
                </mxCell>
                <mxCell id="RJFD0Sm-HPqhG27CNGZm-59" value="Modifica dati dipendente" style="ellipse;whiteSpace=wrap;html=1;" parent="1" vertex="1">
                    <mxGeometry x="530" y="750" width="90" height="60" as="geometry"/>
                </mxCell>
                <mxCell id="RJFD0Sm-HPqhG27CNGZm-72" style="edgeStyle=none;rounded=0;jumpStyle=none;orthogonalLoop=1;jettySize=auto;html=1;exitX=1;exitY=0.5;exitDx=0;exitDy=0;strokeWidth=1;startArrow=none;startFill=0;endArrow=none;endFill=0;entryX=0.5;entryY=0.5;entryDx=0;entryDy=0;entryPerimeter=0;" parent="1" source="RJFD0Sm-HPqhG27CNGZm-64" target="RJFD0Sm-HPqhG27CNGZm-69" edge="1">
                    <mxGeometry relative="1" as="geometry">
                        <mxPoint x="960" y="800.0000000000002" as="targetPoint"/>
                    </mxGeometry>
                </mxCell>
                <mxCell id="RJFD0Sm-HPqhG27CNGZm-64" value="Visualizzazione grafico vendite" style="ellipse;whiteSpace=wrap;html=1;" parent="1" vertex="1">
                    <mxGeometry x="350" y="799" width="90" height="60" as="geometry"/>
                </mxCell>
                <mxCell id="RJFD0Sm-HPqhG27CNGZm-65" value="Visualizzazione grafico interventi" style="ellipse;whiteSpace=wrap;html=1;" parent="1" vertex="1">
                    <mxGeometry x="350" y="870" width="90" height="60" as="geometry"/>
                </mxCell>
                <mxCell id="RJFD0Sm-HPqhG27CNGZm-71" style="edgeStyle=none;rounded=0;jumpStyle=none;orthogonalLoop=1;jettySize=auto;html=1;exitX=0.5;exitY=0.5;exitDx=0;exitDy=0;exitPerimeter=0;entryX=1;entryY=0.5;entryDx=0;entryDy=0;strokeWidth=1;startArrow=none;startFill=0;endArrow=none;endFill=0;" parent="1" source="RJFD0Sm-HPqhG27CNGZm-69" target="RJFD0Sm-HPqhG27CNGZm-65" edge="1">
                    <mxGeometry relative="1" as="geometry"/>
                </mxCell>
                <mxCell id="RJFD0Sm-HPqhG27CNGZm-69" value="Ardeeno Datalayer" style="shape=umlActor;verticalLabelPosition=bottom;verticalAlign=top;html=1;outlineConnect=0;" parent="1" vertex="1">
                    <mxGeometry x="560" y="870" width="30" height="60" as="geometry"/>
                </mxCell>
            </root>
        </mxGraphModel>
    </diagram>
</mxfile>